<svg width="12" height="14" viewBox="0 0 12 14" xmlns="http://www.w3.org/2000/svg" xmlns:sketch="http://www.bohemiancoding.com/sketch/ns"><title>address-bar-icon</title><desc>Created with Sketch.</desc><path d="M8.574 6.392c-.474 0-.857-.381-.857-.852s.384-.852.857-.852.857.381.857.852-.385.852-.857.852zm-5.143 0c-.474 0-.857-.381-.857-.852s.384-.852.857-.852.857.381.857.852-.385.852-.857.852zm6.368-4.481c-.533-.881-1.846-1.911-3.796-1.911-1.952 0-3.267 1.03-3.798 1.911-1.284 2.125-2.204 11.721-2.204 11.725l1.999-.852 2 .852 2.001-.852h.001l2 .852 1.999-.852 1.998.852c0-.004-.919-9.6-2.202-11.725z" sketch:type="MSShapeGroup" fill="#9D9D9D"/></svg>