<svg width="100" height="21" viewBox="0 0 100 21" xmlns="http://www.w3.org/2000/svg" xmlns:sketch="http://www.bohemiancoding.com/sketch/ns"><title>logo mark + logotype</title><desc>Created with Sketch.</desc><g sketch:type="MSShapeGroup" fill="#455A9E"><g><path d="M93.742 16.193c-1.334 0-2.375-.483-3.123-1.45-.748-.967-1.122-2.324-1.122-4.071 0-1.753.379-3.118 1.136-4.095.757-.977 1.806-1.465 3.147-1.465 1.405 0 2.475.519 3.21 1.557h.116c-.11-.767-.164-1.373-.164-1.818v-3.897h2.282v15.045h-1.779l-.396-1.402h-.106c-.728 1.064-1.795 1.595-3.2 1.595zm.609-1.837c.935 0 1.615-.263 2.04-.788.425-.525.645-1.378.657-2.557v-.319c0-1.347-.219-2.304-.657-2.872-.438-.567-1.125-.851-2.059-.851-.799 0-1.415.324-1.847.972-.432.648-.648 1.571-.648 2.77 0 1.186.209 2.09.628 2.712.419.622 1.047.933 1.885.933z" fill-opacity=".2"/><path d="M83.396 16.193c-1.663 0-2.964-.485-3.901-1.455-.938-.97-1.407-2.306-1.407-4.008 0-1.747.435-3.12 1.305-4.119.87-.999 2.066-1.499 3.587-1.499 1.412 0 2.527.429 3.345 1.286.819.857 1.228 2.037 1.228 3.539v1.228h-7.126c.032 1.038.313 1.835.841 2.393.529.558 1.273.836 2.234.836.632 0 1.22-.06 1.765-.179.545-.119 1.13-.317 1.755-.595v1.847c-.554.264-1.115.451-1.682.561-.567.11-1.215.164-1.943.164zm-.416-9.36c-.722 0-1.3.229-1.736.686-.435.458-.695 1.125-.778 2.001h4.854c-.013-.883-.226-1.552-.638-2.006-.413-.454-.98-.682-1.702-.682z" fill-opacity=".3"/><path d="M74.926 14.356c.554 0 1.109-.087 1.663-.261v1.711c-.251.11-.575.201-.972.276-.396.074-.807.111-1.233.111-2.153 0-3.229-1.134-3.229-3.403v-5.763h-1.46v-1.006l1.566-.832.774-2.263h1.402v2.379h3.046v1.721h-3.046v5.724c0 .548.137.952.411 1.213.274.261.633.392 1.078.392z" fill-opacity=".4"/><path d="M68.487 12.954c0 1.044-.38 1.845-1.141 2.403s-1.85.836-3.268.836c-1.425 0-2.569-.216-3.432-.648v-1.963c1.257.58 2.427.87 3.51.87 1.399 0 2.098-.422 2.098-1.267 0-.271-.077-.496-.232-.677-.155-.18-.409-.367-.764-.561-.355-.193-.848-.413-1.479-.657-1.231-.477-2.064-.954-2.499-1.431-.435-.477-.653-1.096-.653-1.856 0-.915.369-1.626 1.107-2.132.738-.506 1.742-.759 3.012-.759 1.257 0 2.446.255 3.568.764l-.735 1.711c-1.154-.477-2.124-.716-2.91-.716-1.199 0-1.798.342-1.798 1.025 0 .335.156.619.469.851.313.232.994.551 2.045.957.883.342 1.524.654 1.924.938.4.284.696.611.89.981.193.371.29.814.29 1.329z" fill-opacity=".6"/><path d="M58.692 10.634c0 1.747-.448 3.11-1.344 4.09-.896.98-2.143 1.47-3.742 1.47-.999 0-1.882-.226-2.649-.677-.767-.451-1.357-1.099-1.769-1.943-.413-.844-.619-1.824-.619-2.939 0-1.734.445-3.088 1.334-4.061.89-.973 2.143-1.46 3.761-1.46 1.547 0 2.772.498 3.674 1.494.902.996 1.354 2.338 1.354 4.027zm-7.783 0c0 2.469.912 3.703 2.736 3.703 1.805 0 2.707-1.234 2.707-3.703 0-2.443-.909-3.665-2.727-3.665-.954 0-1.645.316-2.074.948-.429.632-.643 1.537-.643 2.717z" fill-opacity=".8"/><path d="M46.045 16h-2.282v-6.575c0-.825-.166-1.441-.498-1.847-.332-.406-.859-.609-1.581-.609-.954 0-1.655.285-2.103.856-.448.57-.672 1.526-.672 2.867v5.308h-2.272v-15.045h2.272v3.819c0 .612-.039 1.267-.116 1.963h.145c.309-.516.74-.915 1.291-1.199.551-.284 1.194-.425 1.929-.425 2.591 0 3.887 1.305 3.887 3.916v6.971z"/><path d="M34.655 5.306v1.247l-1.827.338c.168.226.306.503.416.832.11.329.164.677.164 1.044 0 1.102-.38 1.969-1.141 2.601-.761.632-1.808.948-3.142.948-.342 0-.651-.026-.928-.077-.49.303-.735.657-.735 1.064 0 .245.114.429.343.551.229.122.649.184 1.262.184h1.866c1.18 0 2.076.251 2.688.754.612.503.919 1.228.919 2.176 0 1.212-.5 2.147-1.499 2.804-.999.657-2.443.986-4.332.986-1.457 0-2.569-.258-3.336-.774-.767-.516-1.151-1.251-1.151-2.205 0-.657.208-1.21.624-1.658.416-.448.998-.759 1.745-.933-.303-.129-.553-.337-.749-.624-.197-.287-.295-.588-.295-.904 0-.4.113-.738.338-1.015.226-.277.561-.551 1.006-.822-.554-.239-1.004-.627-1.349-1.165s-.517-1.168-.517-1.89c0-1.16.366-2.059 1.097-2.698.732-.638 1.774-.957 3.128-.957.303 0 .62.021.952.063.332.042.582.085.749.131h3.703zm-8.402 12.357c0 .49.221.867.662 1.131.442.264 1.062.396 1.861.396 1.238 0 2.159-.177 2.765-.532.606-.355.909-.825.909-1.412 0-.464-.166-.794-.498-.991-.332-.197-.949-.295-1.852-.295h-1.721c-.651 0-1.168.153-1.552.459-.384.306-.575.72-.575 1.242zm.977-8.895c0 .67.172 1.186.517 1.547.345.361.84.541 1.484.541 1.315 0 1.972-.703 1.972-2.108 0-.696-.163-1.233-.488-1.61-.326-.377-.82-.566-1.484-.566-.657 0-1.155.187-1.494.561-.338.374-.508.919-.508 1.634z"/></g><path d="M10.812 9.794c-.579 0-1.048-.468-1.048-1.045s.469-1.045 1.048-1.045c.578 0 1.048.468 1.048 1.045s-.47 1.045-1.048 1.045zm-6.286 0c-.579 0-1.048-.468-1.048-1.045s.469-1.045 1.048-1.045c.578 0 1.048.468 1.048 1.045s-.47 1.045-1.048 1.045zm7.783-5.494c-.651-1.08-2.257-2.343-4.64-2.343-2.386 0-3.993 1.263-4.643 2.343-1.569 2.606-2.694 14.37-2.694 14.376l2.444-1.045 2.445 1.045 2.446-1.045h.001l2.445 1.045 2.444-1.045 2.442 1.045c0-.005-1.124-11.77-2.691-14.376z"/></g></svg>