<svg width="17" height="19" viewBox="0 0 17 19" xmlns="http://www.w3.org/2000/svg" xmlns:sketch="http://www.bohemiancoding.com/sketch/ns"><title>ghost-outline</title><desc>Created with Sketch.</desc><path d="M11.44 8.837c-.578 0-1.046-.468-1.046-1.045s.468-1.045 1.046-1.045c.576 0 1.046.468 1.046 1.045s-.469 1.045-1.046 1.045zm-6.273 0c-.578 0-1.046-.468-1.046-1.045s.468-1.045 1.046-1.045c.576 0 1.046.468 1.046 1.045s-.469 1.045-1.046 1.045zm7.767-5.494c-.65-1.08-2.252-2.343-4.63-2.343-2.381 0-3.985 1.263-4.633 2.343-1.566 2.606-2.688 14.37-2.688 14.376l2.439-1.045 2.44 1.045 2.441-1.045h.001l2.44 1.045 2.439-1.045 2.437 1.045c0-.005-1.121-11.77-2.686-14.376z" sketch:type="MSShapeGroup" stroke="#000" opacity=".3" fill="none"/></svg>