<?xml version="1.0" encoding="UTF-8" standalone="no"?>
<svg width="17px" height="19px" viewBox="0 0 17 19" version="1.1" xmlns="http://www.w3.org/2000/svg" xmlns:xlink="http://www.w3.org/1999/xlink" xmlns:sketch="http://www.bohemiancoding.com/sketch/ns">
    <!-- Generator: Sketch 3.3.3 (12072) - http://www.bohemiancoding.com/sketch -->
    <title>ghost-outline</title>
    <g stroke="none" stroke-width="1" fill="none" fill-rule="evenodd" >
        <g transform="translate(-257.000000, -406.000000)" stroke="#000000" opacity="0.300000012">
            <g id="transparency" transform="translate(19.000000, 370.000000)">
                <g id="transparency-selector" transform="translate(0.000000, 24.000000)">
                    <g id="invisible" transform="translate(210.867021, 0.000000)">
                        <path d="M38.5732789,20.8369245 C37.9956367,20.8369245 37.5277727,20.3693213 37.5277727,19.7920012 C37.5277727,19.2146811 37.9956367,18.747078 38.5732789,18.747078 C39.1496142,18.747078 39.6187851,19.2146811 39.6187851,19.7920012 C39.6187851,20.3693213 39.1496142,20.8369245 38.5732789,20.8369245 L38.5732789,20.8369245 Z M32.3002415,20.8369245 C31.7225993,20.8369245 31.2547352,20.3693213 31.2547352,19.7920012 C31.2547352,19.2146811 31.7225993,18.747078 32.3002415,18.747078 C32.8765768,18.747078 33.3457477,19.2146811 33.3457477,19.7920012 C33.3457477,20.3693213 32.8765768,20.8369245 32.3002415,20.8369245 L32.3002415,20.8369245 Z M40.0670459,15.3432404 C39.4175252,14.263051 37.8152869,13 35.4367602,13 C33.0556197,13 31.4520745,14.263051 30.8038607,15.3432404 C29.2382151,17.9490178 28.1156028,29.7135476 28.1156028,29.7187722 C29.3336175,29.7174661 29.3349244,28.673849 30.5542461,28.673849 C31.7748746,28.673849 31.7748746,29.7187722 32.9941962,29.7187722 C34.2148248,29.7187722 34.2148248,28.673849 35.4354533,28.673849 L35.4367602,28.673849 C36.6573887,28.673849 36.6573887,29.7187722 37.8767104,29.7187722 C39.096032,29.7187722 39.096032,28.673849 40.3153537,28.673849 C41.5346753,28.673849 41.5359822,29.7174661 42.7526901,29.7187722 C42.7526901,29.7135476 41.6313846,17.9490178 40.0670459,15.3432404 L40.0670459,15.3432404 Z" id="ghost-outline"></path>
                    </g>
                </g>
            </g>
        </g>
    </g>
</svg>